<svg width="361" height="183" viewBox="0 0 361 183" fill="none" xmlns="http://www.w3.org/2000/svg">
<g opacity="0.6" clip-path="url(#clip0_3037_7716)">
<path d="M167.113 16.5743C173.987 11.5559 181.807 8.47228 189.627 5.37358C191.173 4.17944 193.154 4.4742 194.85 3.80911C195.601 3.5597 196.344 3.31029 197.094 3.06088C199.458 1.85163 202.145 2.28243 204.599 1.55688C214.385 -0.204097 224.216 -0.362811 234.108 0.551686C241.59 1.24701 248.854 2.90217 255.924 5.33579C260.329 6.85491 264.569 8.86529 268.877 10.6565C269.808 11.3291 271.031 11.3896 271.939 12.1076C279.646 17.2091 287.804 21.706 294.303 28.4552C300.675 35.0683 306.378 42.1953 311.106 50.1688C314.048 55.1267 316.164 60.4248 318.783 65.5036C319.789 67.4535 320.074 69.018 316.9 68.9349C315.496 68.8971 313.845 69.411 312.69 70.2273C309.62 72.4039 308.87 70.7941 308.577 68.0204C307.406 66.6902 307.654 64.7025 306.461 63.3874C300.78 50.6298 292.464 39.9053 281.823 31.0022C272.682 23.3461 262.408 17.7911 251.046 14.2843C249.973 13.2942 248.404 13.6192 247.248 12.8483C237.777 10.8454 228.306 9.42457 218.528 9.87048C206.843 10.3995 195.803 13.2715 185.169 17.8289C175.563 21.9479 167.023 27.9866 159.601 35.295C153.462 41.3413 147.668 47.8712 143.916 55.8674C143.24 57.0766 142.745 58.3917 141.777 59.4271C140.914 60.2812 140.569 61.3695 140.358 62.5258C136.899 63.6746 133.349 62.9113 129.837 62.9944C128.764 63.0171 128.366 62.2462 128.996 61.2108C129.724 59.6841 130.46 58.1499 131.188 56.6232C132.066 55.8296 131.938 54.4994 132.719 53.653C135.45 48.9369 137.814 43.9789 141.754 40.0867C142.407 39.2326 143.075 38.3937 143.878 37.6908C148.996 30.4807 155.586 24.8199 162.64 19.6579C164.043 18.4864 165.709 17.7155 167.113 16.5743Z" fill="white"/>
<path d="M93.7671 109.596C90.8028 102.522 87.8309 95.4553 84.8665 88.3811C83.6808 87.0283 83.8834 85.0103 82.6677 83.6726C82.6301 82.9849 82.5851 82.3046 82.5476 81.6169C81.4894 80.2489 81.2568 78.4879 80.3862 77.0293L80.3037 77.0822C79.7783 76.538 79.6132 75.8578 79.6057 75.1247C79.5157 73.3713 79.0654 71.7313 78.0447 70.2801C76.0335 65.6623 76.0335 65.6623 81.0766 65.6548C82.45 65.6548 83.8234 65.7228 85.1892 65.6396C87.5983 65.4885 88.8666 66.5617 89.3168 68.9575C89.6621 70.8016 90.345 72.5702 91.5908 74.0439C92.3788 75.82 92.6865 77.7926 93.7221 79.4705C95.5758 87.0736 98.8253 94.178 101.407 101.517C102.795 105.469 104.334 109.377 105.805 113.307C106.428 114.01 106.022 116.224 108.041 114.849C109.279 113.02 110.015 111.002 110.33 108.817C111.163 107.344 111.426 105.598 112.476 104.222C113.542 99.5743 116.491 95.5762 117.062 90.7618C118.067 89.3561 118.398 87.6329 119.201 86.1289C121.467 80.128 124.296 74.3463 126.083 68.164C126.758 65.9042 128.229 65.0199 130.555 65.3449C131.651 65.5036 132.784 65.3676 133.902 65.3751C139.043 65.3751 139.058 65.3978 137.174 70.2726C133.625 76.5985 131.598 83.5744 128.792 90.2101C126.81 94.9035 124.934 99.6498 123.013 104.366C122.218 105.734 122.645 107.548 121.422 108.757L121.407 108.727C120.934 110.367 120.176 111.871 119.328 113.337C116.807 119.625 114.285 125.913 111.763 132.201C111.163 132.904 110.983 133.857 110.353 134.544C110.127 136.683 109.317 138.603 108.236 140.447C107.861 141.089 107.741 141.966 106.788 141.845C105.835 141.724 105.97 140.772 105.707 140.107C102.48 131.944 99.2156 123.79 95.966 115.635C94.5927 113.859 94.7428 111.516 93.7671 109.596Z" fill="white"/>
<path d="M21.1336 157.142C26.3043 163.309 32.871 167.655 40.3682 169.983C46.3194 171.835 52.4208 172.855 59.0624 171.956C65.9893 171.026 72.1507 168.895 77.6366 165.093C87.3853 158.344 94.6348 149.343 98.8675 138.059C99.1152 137.394 98.92 136.388 99.8957 136.305C100.736 136.23 101.156 136.978 101.427 137.696C102.898 141.566 105.569 145.065 105.021 149.562C104.158 150.355 104.188 151.655 103.393 152.487C97.8319 163.695 89.3215 171.85 78.1169 177.133C66.312 182.703 54.0418 183.64 41.4263 180.526C40.3757 179.347 38.7922 180.05 37.5839 179.43C36.4507 179.498 35.5802 178.848 34.6646 178.334C34.1993 178.297 33.734 178.259 33.2687 178.213C31.4526 177.579 29.719 176.747 27.9779 175.931C23.2649 172.175 18.0641 169.159 13.7789 164.715C7.71512 158.419 3.79765 151.202 1.83892 142.767C1.62878 141.868 1.6513 141.036 2.4543 140.394C5.06595 138.278 12.7808 140.326 13.4262 143.583C13.9816 146.418 15.52 148.617 16.7508 151.035C17.5913 152.245 17.9516 153.749 19.0172 154.829L18.9947 154.814C19.8127 155.487 20.6833 156.114 21.1336 157.142Z" fill="white"/>
<path d="M228.475 93.0518C234.359 96.9517 236.175 102.62 235.958 109.467C235.71 117.509 235.687 125.566 235.98 133.6C236.16 138.535 232.978 137.326 230.277 137.575C227.395 137.84 225.991 137.182 226.119 133.773C226.374 126.616 226.179 119.444 226.209 112.279C226.217 110.019 225.976 107.918 225.061 105.741C222.914 100.61 220.228 98.9545 214.246 99.7934C209.729 100.428 206.044 104.351 205.976 108.976C205.864 116.897 205.954 124.817 205.924 132.738C205.909 137.205 205.436 137.567 200.062 137.545C195.184 137.53 194.922 137.303 194.914 132.927C194.907 121.106 194.877 109.294 194.952 97.4732C194.959 95.8709 193.976 93.6414 196.205 92.8175C198.794 91.8577 202.299 91.1624 203.995 93.0745C206.141 95.493 206.937 93.7925 208.318 92.9309C210.209 91.7746 212.273 91.1019 214.442 90.7618C216.851 90.7543 219.26 90.7543 221.676 90.7467C224.055 91.1699 226.517 91.374 228.475 93.0518Z" fill="white"/>
<path d="M71.2881 107.374C71.3256 108.077 71.3556 108.78 71.3932 109.49C72.4438 111.41 72.4063 113.73 73.6296 115.589C73.8697 116.345 74.1099 117.101 74.35 117.857C75.0104 119.315 74.6877 121.107 75.8585 122.391C77.8472 126.231 79.1605 130.327 80.3988 134.454C81.5846 136.426 81.4945 137.976 78.7778 137.809C76.2712 137.658 73.5695 138.837 71.2806 136.88C70.5751 135.323 69.8697 133.758 69.1567 132.201C68.5038 130.138 67.9335 128.045 66.9128 126.125C64.6164 120.366 63.3331 114.214 60.2411 108.765C59.6407 105.855 58.0422 103.61 55.7233 101.842C52.031 98.8714 47.7157 98.8941 43.6106 101.895C42.7551 102.575 42.0196 103.383 41.2842 104.192C38.8301 106.074 39.1228 108.863 39.0928 111.448C39.0102 118.862 38.9502 126.284 39.1153 133.69C39.1828 136.668 38.1847 137.885 35.2504 137.575C34.0196 137.447 32.7588 137.515 31.513 137.56C29.6368 137.628 28.7813 136.774 28.7888 134.869C28.8038 121.545 28.8113 108.22 28.7813 94.9036C28.7738 92.931 29.7644 92.1148 31.5655 92.2961C34.1772 92.5607 37.014 91.3665 39.3179 93.8228C40.4436 95.0245 41.1791 93.2182 42.1322 92.8781C43.9784 91.5555 46.3649 91.8729 48.2936 90.8073C50.7026 90.7921 53.1116 90.777 55.5282 90.7619C57.682 91.1398 59.7383 91.8049 61.6295 92.9234C64.9766 95.546 67.941 98.4709 69.1267 102.764C69.9823 104.222 70.2674 105.976 71.2881 107.374Z" fill="white"/>
<path d="M322.122 115.022C322.122 121.295 322.017 127.576 322.175 133.849C322.242 136.494 321.687 137.658 318.722 137.62C311.608 137.537 311.608 137.696 311.608 130.38C311.608 118.96 311.69 107.533 311.548 96.1128C311.51 93.1275 312.523 91.9333 315.428 92.2432C316.539 92.3566 317.672 92.3414 318.782 92.2507C321.424 92.024 322.22 93.2711 322.167 95.8256C322.039 102.212 322.122 108.621 322.122 115.022Z" fill="white"/>
<path d="M1.6398 114.365C1.6398 107.843 1.74486 101.313 1.56475 94.7978C1.51972 93.067 2.15012 92.5606 3.51598 92.3112C3.87621 92.2432 4.25895 92.281 4.63418 92.2583C11.426 91.8427 11.426 91.8427 11.426 98.7052C11.426 110.374 11.3434 122.036 11.486 133.705C11.5235 136.562 10.9081 137.726 7.80118 137.613C0.619154 137.356 1.73736 138.104 1.67732 131.294C1.63229 125.649 1.66982 120.003 1.66982 114.357C1.66231 114.365 1.65481 114.365 1.6398 114.365Z" fill="white"/>
<path d="M317.342 72.4116C321.275 72.3965 324.187 74.7998 324.232 78.0875C324.269 81.3147 321.035 84.6855 317.905 84.6704C314.235 84.6477 310.761 81.6019 310.813 78.4503C310.866 74.9132 313.552 72.4267 317.342 72.4116Z" fill="white"/>
<path d="M12.1976 81.5716C10.0212 83.8238 7.61216 85.2447 4.31759 84.1639C1.98362 83.4005 0.527699 82.0477 0.114939 79.4932C-0.402888 76.3189 0.992992 74.0969 3.51458 72.6987C6.09621 71.2702 9.94613 72.6987 12.2576 75.5404C13.2332 77.5583 13.3233 79.5687 12.1976 81.5716Z" fill="white"/>
<path fill-rule="evenodd" clip-rule="evenodd" d="M284.08 92.0163C284.149 93.0983 284.218 94.1983 283.323 95.1001C283.112 94.9853 282.9 94.8711 282.688 94.7568C281.59 94.1638 280.487 93.5688 279.443 92.8781C272.651 88.812 265.612 90.0969 259.683 93.8455C247.758 101.388 245.829 116.791 251.751 127.667C252.021 127.987 252.203 128.363 252.386 128.74C252.605 129.19 252.824 129.641 253.191 129.995C253.702 130.728 254.214 131.461 254.726 132.194C255.238 132.927 255.751 133.66 256.261 134.393C256.762 134.763 257.312 135.056 257.862 135.349C258.606 135.746 259.35 136.142 259.976 136.729C260.208 136.744 260.441 136.774 260.674 136.827C262.347 137.817 264.081 138.626 266.025 138.898L274.933 138.966C275.617 138.419 276.437 138.282 277.257 138.144C278.002 138.019 278.747 137.893 279.39 137.462C280.038 137.333 280.72 136.832 281.353 136.368C282.24 135.718 283.031 135.138 283.496 135.746C285.003 137.729 286.766 137.622 288.521 137.514C289.247 137.47 289.973 137.426 290.678 137.53C294.137 138.044 295.165 136.434 295.143 133.003C295.056 116.831 295.063 100.656 295.071 84.483C295.074 78.4182 295.077 72.3537 295.075 66.2897C295.068 61.4225 294.858 61.2411 289.987 61.226C289.867 61.226 289.748 61.2314 289.628 61.2367C289.373 61.2482 289.119 61.2596 288.869 61.2184C285.192 60.6289 283.826 61.944 283.968 65.9118C284.198 72.3387 284.142 78.7788 284.087 85.2187C284.069 87.2001 284.052 89.1815 284.043 91.1625C284.043 91.4431 284.062 91.7291 284.08 92.0163ZM264.612 127.901C271.328 132.269 277.88 130.403 283.186 122.384C284.492 117.093 285.159 111.81 283.163 106.512C277.332 99.1133 273.047 98.025 265.197 101.97C264.266 102.552 263.568 103.376 262.87 104.2C259.028 108.901 259.456 114.388 260.191 119.852C260.619 123.034 261.617 125.951 264.612 127.901Z" fill="white"/>
<path fill-rule="evenodd" clip-rule="evenodd" d="M169.401 92.9386C163.172 90.5276 156.935 89.4318 150.684 92.8857C149.285 93.592 148.026 94.5142 146.764 95.4385C145.811 96.1362 144.856 96.8351 143.839 97.443C135.982 104.608 135.742 113.949 137.926 123.109C139.937 131.521 146.038 137.212 154.691 138.747C164.26 140.439 172.958 138.482 179.194 130.047C179.408 129.773 179.588 129.473 179.768 129.173C180.096 128.629 180.423 128.084 180.95 127.689C182.114 126.08 183.239 124.47 180.59 123.162C180.114 122.927 179.635 122.698 179.157 122.469C178.172 121.998 177.189 121.527 176.23 121.008C174.181 119.897 172.913 120.29 171.877 122.558C169.243 128.324 164.763 130.584 157.873 129.949C153.003 129.503 150.076 126.276 148.222 120.381C147.292 117.403 148.005 116.428 150.841 116.481C154.252 116.544 157.664 116.505 161.076 116.467C167.137 116.399 173.196 116.331 179.247 116.829C181.018 116.972 181.513 116.436 181.536 114.886C181.596 110.065 181.153 105.371 178.346 101.237C178.076 100.759 177.73 100.333 177.383 99.9065C176.931 99.3496 176.477 98.7921 176.192 98.1157C175.888 96.4526 174.668 95.9085 173.448 95.3642C172.833 95.0898 172.218 94.8153 171.72 94.3972C171.369 94.0403 170.932 93.8238 170.496 93.6077C170.11 93.4166 169.725 93.2259 169.401 92.9386ZM166.224 108.606C169.301 108.561 170.359 107.185 168.61 104.313C168.444 104.114 168.285 103.906 168.126 103.698C167.634 103.054 167.14 102.406 166.396 102L166.411 101.985C165.928 101.606 165.362 101.406 164.795 101.206C164.288 101.028 163.781 100.849 163.335 100.542C157.646 98.7732 153.196 100.874 149.526 105.16C148.933 105.847 148.197 106.792 148.663 107.88C149.028 108.732 149.772 108.685 150.476 108.64C150.641 108.63 150.804 108.62 150.959 108.621C151.558 108.624 152.156 108.627 152.755 108.629C157.244 108.651 161.734 108.673 166.224 108.606Z" fill="white"/>
<path d="M274.884 164.11V161.294H278.646C279.321 161.294 279.827 161.118 280.164 160.766C280.501 160.414 280.67 159.915 280.67 159.27C280.67 158.625 280.501 158.133 280.164 157.796C279.827 157.444 279.321 157.268 278.646 157.268H274.884V155.09H278.47C279.585 155.09 280.575 155.229 281.44 155.508C282.305 155.772 282.987 156.205 283.486 156.806C283.985 157.407 284.234 158.221 284.234 159.248V159.556C284.234 160.509 284.014 161.331 283.574 162.02C283.134 162.695 282.489 163.215 281.638 163.582C280.787 163.934 279.731 164.11 278.47 164.11H274.884ZM271.804 164.11V147.808H275.324V164.11H271.804ZM274.884 156.696V154.54H278.052C278.741 154.54 279.24 154.364 279.548 154.012C279.856 153.66 280.01 153.191 280.01 152.604C280.01 151.988 279.856 151.504 279.548 151.152C279.24 150.8 278.741 150.624 278.052 150.624H274.884V147.808H277.832C279.68 147.808 281.095 148.197 282.078 148.974C283.075 149.751 283.574 150.859 283.574 152.296V152.626C283.574 153.623 283.317 154.423 282.804 155.024C282.305 155.625 281.623 156.058 280.758 156.322C279.907 156.571 278.932 156.696 277.832 156.696H274.884ZM287.036 164V147.94H292.008L295.682 156.96H296.1L299.73 147.94H304.79V164H301.226V150.294L301.732 150.338L297.486 160.744H294.054L289.786 150.338L290.336 150.294V164H287.036ZM313.98 164.418C312.528 164.418 311.303 164.191 310.306 163.736C309.309 163.267 308.553 162.636 308.04 161.844C307.527 161.037 307.27 160.113 307.27 159.072H310.768C310.768 159.483 310.878 159.864 311.098 160.216C311.333 160.568 311.685 160.854 312.154 161.074C312.623 161.279 313.232 161.382 313.98 161.382C314.655 161.382 315.219 161.294 315.674 161.118C316.129 160.942 316.473 160.7 316.708 160.392C316.943 160.069 317.06 159.703 317.06 159.292C317.06 158.779 316.84 158.375 316.4 158.082C315.96 157.774 315.249 157.576 314.266 157.488L313.056 157.378C311.457 157.246 310.181 156.747 309.228 155.882C308.275 155.017 307.798 153.873 307.798 152.45C307.798 151.423 308.04 150.536 308.524 149.788C309.023 149.04 309.712 148.468 310.592 148.072C311.472 147.661 312.513 147.456 313.716 147.456C314.977 147.456 316.055 147.676 316.95 148.116C317.859 148.541 318.556 149.15 319.04 149.942C319.524 150.719 319.766 151.636 319.766 152.692H316.246C316.246 152.296 316.151 151.937 315.96 151.614C315.769 151.277 315.483 151.005 315.102 150.8C314.735 150.595 314.273 150.492 313.716 150.492C313.188 150.492 312.741 150.58 312.374 150.756C312.022 150.932 311.758 151.174 311.582 151.482C311.406 151.775 311.318 152.098 311.318 152.45C311.318 152.905 311.479 153.301 311.802 153.638C312.125 153.975 312.653 154.173 313.386 154.232L314.618 154.342C315.791 154.445 316.825 154.701 317.72 155.112C318.615 155.508 319.311 156.058 319.81 156.762C320.323 157.451 320.58 158.295 320.58 159.292C320.58 160.319 320.309 161.221 319.766 161.998C319.238 162.761 318.483 163.355 317.5 163.78C316.517 164.205 315.344 164.418 313.98 164.418Z" fill="white"/>
</g>
<defs>
<clipPath id="clip0_3037_7716">
<rect width="361" height="182.287" fill="white"/>
</clipPath>
</defs>
</svg>
